<svg id="Laag_1" data-name="Laag 1" xmlns="http://www.w3.org/2000/svg" viewBox="0 0 130 24"><defs><style>.cls-1{fill:#fff;}.cls-2{fill:#1a3065;}</style></defs><path id="_636oa" data-name="636oa" class="cls-1" d="M116.63,2.58a9,9,0,0,0-9,9,1.93,1.93,0,0,0,0,.24h0v4.59h5V11.8a1.23,1.23,0,0,0,0-.27A3.95,3.95,0,0,1,120.24,10a2.76,2.76,0,0,0,.3.5l4.29-2.63a9,9,0,0,0-8.2-5.24"/><path id="_636ob" data-name="636ob" class="cls-1" d="M125.24,10.54s-.79,4-.14,5.26a2.45,2.45,0,0,0,3.4,1.07,2.75,2.75,0,0,0,1-3.59c-.65-1.27-4.27-2.74-4.27-2.74"/><path id="_636oc" data-name="636oc" class="cls-2" d="M94.85,15.53l-.15,0,.15,0"/><path id="_636od" data-name="636od" class="cls-2" d="M95.13,15.58l-.43-.08.43.08"/><path id="_636oe" data-name="636oe" class="cls-1" d="M95.13,2.58A9,9,0,0,0,95,20.67h1.84V15.74c-.69,0-1.37-.08-2.05-.14l-.35,0-.15,0-.09,0a4,4,0,0,1-3.08-3.89,4,4,0,0,1,6.23-3.28A3.24,3.24,0,0,1,98.86,11a3.19,3.19,0,0,1-2.51,3.1v.09c.42,0,1,0,1.76,0h5.69A9.07,9.07,0,0,0,95.13,2.58"/><path id="_636of" data-name="636of" class="cls-2" d="M95,15.54l-.27,0,.27,0"/><path id="_636oh" data-name="636oh" class="cls-1" d="M19.8,11.6c0-.12,0-.24,0-.35V0H14.68V3.43A9.07,9.07,0,1,0,19.8,11.6m-13,0a3.94,3.94,0,1,1,3.94,4,3.95,3.95,0,0,1-3.94-4"/><path id="_636oi" data-name="636oi" class="cls-1" d="M40.46,11.62a9,9,0,1,0-9,9.05h0a9,9,0,0,0,9-9.05m-13,0a3.94,3.94,0,1,1,7.87,0h0a3.94,3.94,0,1,1-7.87,0h0"/><path id="_636oj" data-name="636oj" class="cls-1" d="M49,19.89a9.12,9.12,0,1,0-5.11-8.21c0,.11,0,.23,0,.33V23.25H49Zm0-8.21a3.93,3.93,0,1,1,3.93,4A3.94,3.94,0,0,1,49,11.68Z"/><path id="_636ok" data-name="636ok" class="cls-1" d="M70.55,19.89a9,9,0,0,0,13-8.21,9,9,0,1,0-18.08,0c0,.11,0,.23,0,.33V23.25h5.11Zm0-8.21a3.93,3.93,0,1,1,3.93,4A3.94,3.94,0,0,1,70.54,11.68Z"/><path id="_636ol" data-name="636ol" class="cls-1" d="M1.3,2.58A1.28,1.28,0,0,1,2.58,3.86h0A1.29,1.29,0,0,1,0,3.89v0A1.29,1.29,0,0,1,1.29,2.58Zm0,.2a1.07,1.07,0,0,0-1,1.1A1.07,1.07,0,0,0,1.3,5a1.05,1.05,0,0,0,1-1.09,1.07,1.07,0,0,0-1-1.1ZM1.05,4.62H.82V3.18a4.1,4.1,0,0,1,.41,0,.77.77,0,0,1,.45.11.34.34,0,0,1,.14.3.36.36,0,0,1-.29.35h0c.13,0,.22.13.25.35a1.08,1.08,0,0,0,.09.35H1.63a.94.94,0,0,1-.1-.37A.28.28,0,0,0,1.21,4H1.05Zm0-.8h.17c.19,0,.35-.07.35-.25s-.09-.24-.35-.24H1.05Z"/></svg>