<svg xmlns="http://www.w3.org/2000/svg" xmlns:xlink="http://www.w3.org/1999/xlink" width="130" height="24" viewBox="0 0 130 24"><defs><path id="636oa" d="M156.632 29.583c-4.97 0-9.016 4.013-9.016 8.945 0 .081.004.163.013.241h-.005v4.592h5.05v-4.56c.012-.09.018-.181.018-.273 0-2.157 1.766-3.91 3.94-3.91 1.56 0 2.975.914 3.606 2.33.084.183.187.35.305.503l4.291-2.633a9.027 9.027 0 0 0-8.202-5.235"/><path id="636ob" d="M165.24 37.54s-.788 4-.143 5.263c.647 1.263 2.183 1.766 3.4 1.069 1.22-.698 1.657-2.332 1.01-3.596-.646-1.263-4.267-2.736-4.267-2.736"/><path id="636oc" d="M134.85 42.53c-.055-.01-.103-.022-.148-.03.05.008.099.02.148.03"/><path id="636od" d="M135.132 42.576a5.772 5.772 0 0 1-.43-.076c.14.034.285.06.43.076"/><path id="636oe" d="M135.132 29.583c-4.985 0-9.04 4.056-9.04 9.043 0 4.928 4.008 8.985 8.937 9.04h1.841v-4.925a46.758 46.758 0 0 1-2.053-.144 3.793 3.793 0 0 1-.352-.043 1.673 1.673 0 0 1-.148-.024l-.083-.017a4.008 4.008 0 0 1-3.088-3.888c0-2.199 1.788-4.047 3.986-3.987.886.023 1.608.261 2.248.701.887.61 1.475 1.557 1.475 2.687a3.186 3.186 0 0 1-2.507 3.109v.089c.42.005.987-.013 1.757-.013H143.795l.002-.002c.25-.835.375-1.706.375-2.584 0-4.986-4.054-9.042-9.04-9.042"/><path id="636of" d="M134.967 42.543c-.089-.015-.178-.025-.265-.043.078.017.164.03.265.043"/><path id="636og" d="M134.702 42.5"/><path id="636oh" d="M59.801 38.599c0-.118-.004-.236-.008-.352V27h-5.108v3.43a8.963 8.963 0 0 0-3.923-.898c-4.993 0-9.04 4.06-9.04 9.067 0 5.008 4.047 9.068 9.04 9.068 4.992 0 9.04-4.06 9.04-9.068m-12.978.005c0-2.183 1.762-3.954 3.933-3.954 2.173 0 3.932 1.771 3.932 3.954 0 2.183-1.76 3.955-3.932 3.955-2.171 0-3.933-1.771-3.933-3.955"/><path id="636oi" d="M80.464 38.624a9.04 9.04 0 1 0-18.08 0 9.041 9.041 0 0 0 9.04 9.043c4.993 0 9.04-4.049 9.04-9.043m-12.985.038a3.938 3.938 0 1 1 7.876 0 3.937 3.937 0 1 1-7.875 0"/><path id="636oj" d="M89.024 46.887a8.97 8.97 0 0 0 3.923.899c4.992 0 9.04-4.074 9.04-9.101 0-5.027-4.048-9.102-9.04-9.102-4.993 0-9.04 4.075-9.04 9.102 0 .11.004.221.008.33V50.25h5.11zm-.003-8.202c0-2.183 1.758-3.954 3.926-3.954 2.169 0 3.927 1.77 3.927 3.954 0 2.183-1.758 3.953-3.927 3.953-2.168 0-3.926-1.77-3.926-3.953z"/><path id="636ok" d="M110.549 46.887a8.963 8.963 0 0 0 3.921.899c4.993 0 9.04-4.074 9.04-9.101 0-5.027-4.047-9.102-9.04-9.102-4.992 0-9.04 4.075-9.04 9.102 0 .11.005.221.01.33V50.25h5.109zm-.007-8.202c0-2.183 1.76-3.954 3.928-3.954 2.17 0 3.927 1.77 3.927 3.954 0 2.183-1.758 3.953-3.927 3.953-2.168 0-3.928-1.77-3.928-3.953z"/><path id="636ol" d="M41.301 29.584a1.28 1.28 0 0 1 1.282 1.289c0 .726-.57 1.294-1.288 1.294A1.288 1.288 0 0 1 40 30.873c0-.716.58-1.29 1.295-1.29h.006zm-.006.201c-.576 0-1.044.488-1.044 1.092 0 .614.468 1.098 1.05 1.098.58.005 1.043-.484 1.043-1.093s-.463-1.097-1.043-1.097zm-.244 1.838h-.232v-1.438c.122-.017.237-.034.41-.034.222 0 .367.045.454.11.087.061.135.16.135.297 0 .188-.13.302-.285.348v.012c.127.023.215.137.244.349.034.224.07.31.092.356h-.243c-.036-.046-.07-.178-.1-.368-.034-.182-.126-.25-.312-.25h-.163zm0-.805h.168c.19 0 .354-.068.354-.243 0-.122-.093-.247-.354-.247-.076 0-.128.006-.168.011z"/></defs><g><g transform="translate(-40 -27)"><g><g><use fill="#1a3065" xlink:href="#636oa"/></g><g><use fill="#39a2d9" xlink:href="#636ob"/></g><g><use fill="#1a3065" xlink:href="#636oc"/></g><g><use fill="#1a3065" xlink:href="#636od"/></g><g><use fill="#1a3065" xlink:href="#636oe"/></g><g><use fill="#1a3065" xlink:href="#636of"/></g><g><use fill="#1a3065" xlink:href="#636og"/></g><g><use fill="#1a3065" xlink:href="#636oh"/></g><g><use fill="#1a3065" xlink:href="#636oi"/></g><g><use fill="#1a3065" xlink:href="#636oj"/></g><g><use fill="#1a3065" xlink:href="#636ok"/></g><g><use fill="#1a3065" xlink:href="#636ol"/></g></g></g></g></svg>